<svg width="326" height="326" viewBox="0 0 326 326" fill="none" xmlns="http://www.w3.org/2000/svg">
<path d="M326 163C326 253.022 253.022 326 163 326C72.9776 326 0 253.022 0 163C0 72.9776 72.9776 0 163 0C253.022 0 326 72.9776 326 163ZM48.0877 163C48.0877 226.464 99.5357 277.912 163 277.912C226.464 277.912 277.912 226.464 277.912 163C277.912 99.5357 226.464 48.0877 163 48.0877C99.5357 48.0877 48.0877 99.5357 48.0877 163Z" fill="white" fill-opacity="0.4"/>
<path d="M301.957 163C315.236 163 326.182 152.179 324.23 139.044C322.274 125.88 318.709 112.974 313.592 100.623C305.401 80.8465 293.394 62.8775 278.258 47.7416C263.122 32.6056 245.153 20.5991 225.377 12.4076C213.026 7.29139 200.12 3.72594 186.956 1.76994C173.821 -0.18154 163 10.7642 163 24.0425C163 37.3208 173.879 47.8331 186.868 50.591C193.731 52.0482 200.463 54.1345 206.976 56.8324C220.918 62.6074 233.586 71.072 244.257 81.7428C254.928 92.4137 263.393 105.082 269.168 119.024C271.866 125.537 273.952 132.269 275.409 139.132C278.167 152.121 288.679 163 301.957 163Z" fill="white"/>
</svg>
