<svg width="396" height="435" viewBox="0 0 396 435" fill="none" xmlns="http://www.w3.org/2000/svg">
<path d="M395.5 197.5C395.5 306.299 307.077 394.5 198 394.5C88.9226 394.5 0.5 306.299 0.5 197.5C0.5 88.7011 88.9226 0.5 198 0.5C307.077 0.5 395.5 88.7011 395.5 197.5Z" fill="#0C2955" stroke="#0C2955"/>
<path d="M252.5 270.5L210 313.5V263.5L257.5 218L261.75 216.25L266 214.5V246L265 252L263 257L258.5 264.5L252.5 270.5Z" fill="#5EF9EB" stroke="#5EF9EB"/>
<path d="M72.5 271C72.5 276.5 74.8 290.1 84 300.5L87.5 305L133 277L120.5 263C118.167 259.833 111.5 253.5 103.5 253.5H72.5V271Z" fill="#FB5C24" stroke="#FB5C24"/>
<path d="M219 340V327L262 285C263.833 282.5 269.4 277.5 277 277.5H326C318.167 298.333 292.1 340 250.5 340H219Z" fill="#5EF9EB"/>
<path d="M200.5 211H167V213L192.5 238.5C194.667 240.5 200.7 243.3 207.5 238.5L223.5 224.5L217 217.5C214.667 215.333 208.1 211 200.5 211Z" fill="#5EF9EB"/>
<path d="M192 264.5V312.5L110.5 229H147.5C151.833 229.333 162.3 231.4 169.5 237C177 242.333 192 255.3 192 264.5Z" fill="#5EF9EB"/>
<path d="M182.5 340H142.5C123.916 340 105.908 324.747 97.7014 315.5C97.076 314.795 96.5075 314.126 96 313.5L133.5 277.5L182.5 325.5V340Z" fill="#5EF9EB"/>
<path d="M96 313.5C96.5075 314.126 97.076 314.795 97.7014 315.5M96 313.5L97.7014 315.5M96 313.5L133.5 277.5L182.5 325.5V340H142.5C123.916 340 105.908 324.747 97.7014 315.5M219 327V340H250.5C292.1 340 318.167 298.333 326 277.5H277C269.4 277.5 263.833 282.5 262 285L219 327ZM167 211H200.5C208.1 211 214.667 215.333 217 217.5L223.5 224.5L207.5 238.5C200.7 243.3 194.667 240.5 192.5 238.5L167 213V211ZM192 312.5V264.5C192 255.3 177 242.333 169.5 237C162.3 231.4 151.833 229.333 147.5 229H110.5L192 312.5Z" stroke="#61F7EC"/>
<path d="M85.618 397.227C76.3967 401.874 65.4893 395.28 65.3192 384.955L64.6703 345.58C64.4889 334.575 76.4923 327.674 85.9112 333.368L121.727 355.02C131.146 360.714 130.614 374.55 120.785 379.503L85.618 397.227Z" fill="#0C2955"/>
<ellipse cx="108.096" cy="288.612" rx="27.2653" ry="26.2668" transform="rotate(-43 108.096 288.612)" fill="#FB5C24"/>
<ellipse cx="214.5" cy="171.5" rx="23.5" ry="22.5" fill="#FB5C24"/>
<circle cx="170" cy="147" r="10" fill="#FB5C24"/>
<ellipse cx="227" cy="101.5" rx="29" ry="29.5" fill="#FB5C24"/>
<ellipse cx="130" cy="95.5" rx="30" ry="30.5" fill="#FB5C24"/>
<ellipse cx="102.5" cy="167" rx="30.5" ry="30" fill="#FB5C24"/>
<ellipse cx="275" cy="65.5" rx="12" ry="12.5" fill="#FB5C24"/>
<circle cx="337" cy="115" r="11" fill="#FB5C24"/>
<ellipse cx="292.5" cy="145.5" rx="29.5" ry="30.5" fill="#5EF9EB"/>
<ellipse cx="292.5" cy="145.5" rx="29.5" ry="30.5" fill="#5EF9EB"/>
<ellipse cx="311.5" cy="220" rx="30.5" ry="31" fill="#5EF9EB"/>
<circle cx="72" cy="221" r="14" fill="#5EF9EB"/>
<circle cx="68" cy="115" r="14" fill="#5EF9EB"/>
<circle cx="190.5" cy="54.5" r="13.5" fill="#5EF9EB"/>
</svg>
